<?xml version="1.0" encoding="UTF-8" standalone="no"?>
<!DOCTYPE svg PUBLIC "-//W3C//DTD SVG 1.1//EN" "http://www.w3.org/Graphics/SVG/1.1/DTD/svg11.dtd">
<svg width="100%" height="100%" viewBox="0 0 512 512" version="1.1" xmlns="http://www.w3.org/2000/svg" xmlns:xlink="http://www.w3.org/1999/xlink" xml:space="preserve" xmlns:serif="http://www.serif.com/" style="fill-rule:evenodd;clip-rule:evenodd;stroke-linejoin:round;stroke-miterlimit:2;">
    <g id="Layer-1" serif:id="Layer 1">
        <g transform="matrix(0.99768,0,0,1.00124,-0.201505,-0.427725)">
            <rect x="0.202" y="0.427" width="513.191" height="511.366" style="fill:rgb(71,116,179);"/>
        </g>
        <g transform="matrix(1,0,0,1,155.212,234.773)">
            <path d="M0,33.922C-11.485,33.922 -16.711,25.777 -16.344,14.999C-16,4.226 -9.869,-7.075 1.91,-7.075C7.972,-7.075 12.584,-0.538 15.857,7.924C18.431,15.59 13.374,33.922 0,33.922M-8.575,-14.641C-21.522,-7.346 -25.178,3.182 -25.178,14.948C-25.178,28.761 -17.314,39.898 -1.311,39.898C9.73,39.898 18.073,33.758 20.535,25.511C21.518,31.146 22.014,36.384 22.014,40.139C22.014,64.373 5.048,103.291 -27.317,103.291C-46.761,103.291 -77.25,86.494 -77.25,18.375C-77.25,-39.285 -60.911,-88.055 -27.317,-89.356C-5.816,-90.214 8.67,-78.837 4.337,-60.031C-0.487,-39.155 22.315,-34.538 16.775,-57.276C11.235,-79.992 4.04,-97.669 -27.317,-97.669C-73.883,-97.669 -100.273,-26.885 -100.273,22.381C-100.273,77.789 -80.794,131.591 -31.55,126.629C17.379,121.692 28.563,59.333 28.563,39.406C28.563,2.203 10.537,-25.411 -8.575,-14.641" style="fill:white;fill-rule:nonzero;"/>
        </g>
        <g transform="matrix(1,0,0,1,262.332,80.1474)">
            <path d="M0,358.751C-48.253,358.751 -76.703,330.395 -76.703,279.607C-76.703,243.698 -62.269,191.01 -1.444,186.297C30.994,216.934 59.548,243.936 62.562,279.607C66.532,326.601 39.069,358.751 0,358.751M269.808,197.162C258.408,206.229 255.855,231.398 218.48,231.398C139.803,231.398 100.147,168.375 12.239,163.943C-22.639,132.901 -57.669,104.3 -57.669,61.351C-57.669,17.47 -29.822,-2.944 -0.462,-2.944C42.281,-2.944 48.239,36.789 40.561,53.34C30.334,75.358 68.701,86.305 57.491,42.337C57.491,42.337 52.701,-13.632 -0.462,-13.632C-43.7,-13.632 -71.081,17.246 -71.081,61.351C-71.081,107.137 -47.403,139.972 -19.992,168.155C-59.514,184.047 -86.223,238.826 -86.223,279.607C-86.223,332.598 -51.12,372.383 0,372.383C47.925,372.383 85.329,340.112 81.19,279.607C78.573,241.34 62.285,213.131 38.448,188.63C105.882,199.951 171.229,242.517 219.274,242.517C264.013,242.517 276.925,227.303 287.66,216.873C299.849,205.056 289.394,181.589 269.808,197.162" style="fill:white;fill-rule:nonzero;"/>
        </g>
        <path d="M512,326.65C493.061,331.122 472.636,330.079 453.877,325.717C429.5,320.048 406.272,310.114 382.934,300.99C361.935,292.794 340.735,284.844 318.923,279.36C336.951,302.168 347.936,329.739 350.062,358.369C352.13,386.219 345.379,415.675 325.322,435.356C296.663,463.477 247.217,466.506 213.707,445.844C195.328,434.511 181.735,416.087 174.999,395.487C168.948,376.983 168.165,357.06 171.613,337.661C159.025,356.321 138.149,369.749 113.567,368.224C100.445,367.409 87.825,361.853 78.24,352.607C62.295,337.225 54.913,314.986 51.21,293.186C43.829,249.727 49.73,203.203 73.963,165.414C75.968,162.288 78.119,159.253 80.436,156.346C91.928,141.933 108.541,130.653 127.583,130.483C127.819,130.482 128.055,130.483 128.291,130.483C143.415,130.584 158.673,135.197 167.74,148.46C174.851,158.861 179.235,171.797 179.478,183.453C179.651,191.783 173.877,202.656 162.737,198.383C153.554,194.861 151.484,181.796 153.314,172.213C154.126,167.795 153.608,163.065 150.796,159.524C144.65,151.786 132.357,150.726 123.548,152.604C109.171,155.669 99.98,170.815 94.678,185.156C85.849,209.034 83.807,235.482 84.717,260.659C85.276,276.132 87.381,291.782 94.033,305.901C100.743,320.145 113.825,332.526 130.231,331.36C153.128,329.733 169.43,302.225 170.561,276.947C170.561,276.947 170.745,276.735 169.61,277.375C157.452,284.07 140.695,282.341 131.368,272.165C122.765,262.781 121.62,248.284 125.213,236.218C128.33,225.749 136.481,216.83 146.654,212.798C155.055,209.469 165.072,212.049 171.849,218.34C188.124,233.449 191.98,260.618 189.995,282.069C189.736,284.874 189.393,287.674 188.965,290.462C193.854,282.012 199.559,274.093 205.956,266.94C213.229,258.807 221.66,251.627 231.201,246.302C231.201,246.302 228.452,243.196 226.071,240.476C199.862,210.544 181.156,172.788 185.107,131.277C187.343,107.775 198.901,84.47 219.09,71.612C231.82,63.505 247.387,59.864 262.208,59.894C276.176,59.98 290.302,64.032 301.219,72.818C315.726,84.491 324.308,103.2 326.36,121.324C329.433,133.449 330.938,147.726 321.471,155.755C314.2,161.921 301.492,159.172 296.647,149.786C293.525,143.737 294.552,136.366 297.199,129.983C303.416,114.601 295.695,94.201 280.024,87.26C257.109,77.111 227.327,88.551 216.748,112.638C208.503,131.413 209.719,153.523 218.01,171.508C225.573,187.915 238.119,201.513 251.224,214.046C259.182,221.658 267.456,228.93 275.695,236.232L277.247,237.609C277.701,237.638 278.155,237.668 278.608,237.699C308.853,239.839 337.529,249.855 364.409,263.306C392.921,277.572 420.323,294.883 451.119,301.678C471.612,306.2 495.204,308.33 508.88,295.827C509.992,294.81 511.023,293.723 512,292.584L512,326.65ZM258.433,273.321C241.068,275.221 224.192,282.453 212.603,295.92C193.97,317.571 189.717,349.636 193.271,375.232C195.475,391.111 201.969,406.82 214.502,417.339C229.21,429.683 250.361,434.01 269.219,431.897C289.484,429.627 307.309,415.918 314.665,394.24C320.464,377.153 320,357.789 314.159,342.059C303.966,314.614 280.225,293.844 259.367,274.118C258.769,273.552 258.904,273.271 258.433,273.321ZM157.034,234.321C148.706,234.414 143.638,246.272 146.005,255.399C146.52,257.383 147.524,259.337 149.246,260.53C155.78,265.056 165.419,258.389 165.09,246.912C165.063,245.976 165.155,245.709 164.473,244.032C163.03,240.538 161.495,236.722 158.365,234.749C157.959,234.493 157.652,234.318 157.034,234.321Z" style="fill:white;"/>
        <g transform="matrix(1,0,0,1,262.332,80.1474)">
            <path d="M64.038,41.26C64.16,42.418 63.997,40.896 64.038,41.26Z" style="fill:white;"/>
        </g>
        <g transform="matrix(1,0,0,1,262.332,80.1474)">
            <path d="M64.029,41.182C64.029,41.182 63.906,40.691 64.029,41.182Z" style="fill:white;"/>
        </g>
    </g>
</svg>
